<?xml version="1.0" encoding="UTF-8"?>
<svg id="Layer_1" xmlns="http://www.w3.org/2000/svg" version="1.1" viewBox="0 0 246 246">
  <!-- Generator: Adobe Illustrator 30.3.0, SVG Export Plug-In . SVG Version: 2.1.3 Build 182)  -->
  <defs>
    <style>
      .st0 {
        fill: none;
        stroke-width: 16px;
      }

      .st0, .st1 {
        stroke: #fff;
      }

      .st1 {
        fill: #fff;
        stroke-width: 1.6px;
      }
    </style>
  </defs>
  <circle class="st0" cx="123" cy="123" r="107"/>
  <g>
    <path class="st1" d="M188.6,72.6l-26.4-15.9c-23.2,13.4-37.6-1.8-39.7-4.2-2,2.4-16.5,17.6-39.7,4.2l-26.4,15.9s6.7,1.9,7.1,22.2l-4.2,51.8s-1,12.9,7.2,23.7c14.1,20.8,29.3,21.3,29.3,21.3,17.8,6.1,24.5,12.1,26.6,14.5,2.1-2.5,8.8-8.4,26.6-14.5,0,0,15.2-.4,29.3-21.3,8.3-10.8,7.2-23.7,7.2-23.7l-4.2-51.8c.4-20.3,7.1-22.2,7.1-22.2ZM170.1,133.4c0,1.8-1.2,3.3-2.9,3.8l-7.8,2.2c-1.6,3.8-2.3,5.5-3.9,9.3l4,7.1c.9,1.5.6,3.5-.6,4.7l-5.5,5.5c-1.3,1.2-3.2,1.5-4.7.6l-7.1-4c-3.8,1.6-5.5,2.3-9.3,3.9l-2.2,7.8c-.5,1.7-2,2.9-3.8,2.9h-7.8c-1.8,0-3.3-1.2-3.8-2.9l-2.2-7.8c-3.8-1.6-5.5-2.3-9.3-3.9l-7,4c-1.5.9-3.5.6-4.7-.6l-5.5-5.5c-1.2-1.3-1.5-3.2-.6-4.7l4-7.1c-1.6-3.8-2.3-5.5-3.9-9.3l-7.8-2.2c-1.7-.5-2.9-2-2.9-3.8v-7.8c0-1.8,1.2-3.3,2.9-3.8l7.8-2.2c1.6-3.8,2.3-5.5,3.9-9.3l-4-7.1c-.9-1.5-.6-3.5.6-4.7l5.5-5.5c1.3-1.2,3.2-1.5,4.7-.6l7,4c3.8-1.6,5.5-2.3,9.3-3.9l2.2-7.8c.5-1.7,2-2.9,3.8-2.9h7.8c1.8,0,3.3,1.2,3.8,2.9l2.2,7.8c3.8,1.6,5.4,2.3,9.3,3.9l7-4c1.5-.9,3.5-.6,4.7.6l5.5,5.5c1.2,1.3,1.5,3.2.6,4.7l-4,7c1.6,3.8,2.3,5.5,3.9,9.3l7.8,2.2c1.7.4,2.9,2,3,3.9v7.8Z"/>
    <path class="st1" d="M122.5,113.1c-8.9,0-16.2,7.2-16.2,16.2s7.2,16.2,16.2,16.2,16.2-7.2,16.2-16.2-7.3-16.2-16.2-16.2Z"/>
  </g>
</svg>